<?xml version="1.0" encoding="UTF-8"?>
<svg id="b" data-name="Layer_2" xmlns="http://www.w3.org/2000/svg" viewBox="0 0 494.66 70.48">
  <defs>
    <style>
      .d {
        fill: #4da2ff;
      }

      .e {
        fill: #fff;
      }
    </style>
  </defs>
  <g id="c" data-name="Layer_1">
    <g>
      <g>
        <path class="d" d="M134.43,12.09l-2.02,7.46h-21.16c-.08,0-.19.01-.32.03-.13.02-.21.05-.25.09-.13.04-.25.09-.38.16-.13.06-.23.12-.32.16l-.25.25c-.08.08-.17.15-.25.19-.08.08-.16.18-.22.28-.06.11-.09.2-.09.28l-.88,3.35c-.04.08-.06.17-.06.25v.19c0,.08.02.18.06.28.04.11.08.18.13.22.04.08.1.19.19.32.08.13.17.21.25.25.13.08.24.15.35.19.1.04.22.06.35.06h13.9c.25,0,.53.01.82.03.29.02.59.05.88.09.29.04.58.11.85.19.27.08.54.15.79.19.25.08.51.19.76.32.25.13.48.25.7.38.21.13.43.28.66.47.23.19.43.37.6.54.13.17.25.35.38.54.13.19.21.37.25.54.08.21.17.42.25.63.08.21.15.42.19.63.04.21.06.45.06.73v.79c-.04.25-.08.54-.13.85-.04.32-.11.64-.19.98l-3.73,13.84c-.04.21-.11.44-.19.7-.08.25-.17.48-.25.69-.04.21-.12.44-.22.69-.11.25-.2.46-.28.63-.17.34-.34.65-.51.95-.17.3-.34.57-.51.82-.17.25-.37.52-.6.79-.23.27-.43.52-.6.73-.46.46-.95.9-1.45,1.29-.51.4-1.05.75-1.64,1.04-.38.17-.76.34-1.14.51-.38.17-.78.27-1.2.32-.38.08-.78.16-1.2.22-.42.06-.84.09-1.26.09h-29.95l1.96-7.52h21.1c.13,0,.25-.01.38-.03.13-.02.25-.05.38-.09.17-.04.32-.08.44-.13.13-.04.25-.1.38-.19.08-.04.19-.1.32-.19.13-.08.23-.17.32-.25s.17-.19.25-.32c.08-.13.13-.25.13-.38l1.07-3.98c.04-.08.06-.19.06-.32s-.02-.23-.06-.32c-.04-.08-.09-.17-.16-.25-.06-.08-.14-.17-.22-.25-.04-.04-.11-.1-.19-.19-.08-.08-.17-.15-.25-.19-.13-.04-.24-.07-.35-.09-.11-.02-.22-.03-.35-.03h-15.29c-.25,0-.52,0-.79-.03-.27-.02-.54-.05-.79-.09-.25-.04-.5-.09-.73-.16-.23-.06-.43-.14-.6-.22-.21-.04-.41-.13-.6-.25-.19-.13-.37-.23-.54-.32-.17-.13-.32-.26-.44-.41-.13-.15-.25-.28-.38-.41-.21-.34-.4-.69-.57-1.07-.08-.17-.15-.38-.19-.63-.04-.25-.06-.51-.06-.76-.04-.42-.04-.89,0-1.42.04-.53.15-1.08.32-1.67l3.79-14.15c.08-.25.17-.52.25-.79.08-.27.19-.54.32-.79.08-.25.2-.53.35-.82.15-.29.3-.57.47-.82.13-.25.28-.52.47-.79.19-.27.37-.54.54-.79.21-.25.43-.51.66-.76.23-.25.47-.48.73-.69.17-.21.37-.4.6-.57.23-.17.45-.34.66-.51.25-.17.51-.33.76-.47.25-.15.51-.28.76-.41.25-.08.52-.17.79-.25.27-.08.54-.17.79-.25.25-.04.54-.08.85-.13.32-.04.62-.06.92-.06h30.58Z"/>
        <path class="d" d="M157.3,23.96l-6.7,25.02c-.04.08-.06.19-.06.32s.02.23.06.32c.04.13.08.25.13.38.04.13.08.21.13.25.08.08.18.16.28.22.1.06.2.12.28.16.08.08.18.14.28.16.1.02.22.03.35.03h6.89c.08,0,.19,0,.32-.03.13-.02.23-.05.32-.09.17-.04.32-.09.44-.16.13-.06.23-.14.32-.22.08-.04.18-.12.28-.22s.2-.2.28-.28c.08-.08.16-.19.22-.32.06-.13.12-.23.16-.32l6.7-25.15h15.35l-8.91,33.3h-32.28c-.34,0-.67,0-1.01-.03-.34-.02-.65-.07-.95-.16-.29-.04-.58-.13-.85-.25-.27-.13-.52-.25-.73-.38-.25-.13-.48-.27-.69-.44-.21-.17-.4-.36-.57-.57-.17-.17-.33-.38-.47-.63-.15-.25-.28-.48-.41-.7-.17-.21-.31-.45-.41-.73-.11-.27-.18-.54-.22-.79-.08-.29-.16-.59-.22-.88-.06-.29-.09-.59-.09-.88v-.88c0-.29.02-.59.06-.88.04-.63.15-1.24.32-1.83l6.25-23.31h15.16Z"/>
        <path class="d" d="M205.5,23.9l-8.97,33.42h-15.16l8.91-33.42h15.23ZM193.56,12.02h14.97l-2.34,8.66h-14.97l2.34-8.66Z"/>
        <path class="e" d="M250.42,11.9l-1.96,7.46h-17.31c-.25,0-.53.06-.82.19-.17.08-.34.18-.51.28-.17.11-.32.2-.44.28-.3.25-.55.51-.76.76-.08.13-.17.26-.25.41-.08.15-.13.28-.13.41l-6.95,25.9c-.08.25-.08.51,0,.76,0,.13.04.26.13.41.08.15.17.26.25.35.13.08.25.18.38.28.13.11.23.18.32.22.13.08.26.14.41.16.15.02.28.03.41.03h17.69l-2.02,7.52h-26.66c-.34,0-.69,0-1.04-.03-.36-.02-.69-.07-.98-.16-.3-.04-.6-.14-.92-.28-.32-.15-.62-.28-.92-.41-.25-.13-.5-.27-.73-.44-.23-.17-.43-.36-.6-.57-.21-.17-.4-.39-.57-.66-.17-.27-.3-.54-.38-.79-.13-.21-.23-.45-.32-.73-.08-.27-.17-.56-.25-.85-.08-.29-.15-.6-.19-.92-.04-.32-.06-.64-.06-.98.04-.29.06-.6.06-.92s.02-.64.06-.98c.04-.34.09-.68.16-1.04.06-.36.16-.73.28-1.11l6.19-23.38c.08-.38.19-.76.32-1.14.13-.38.25-.72.38-1.01.13-.29.28-.61.47-.95.19-.34.35-.67.47-1.01.21-.34.44-.68.7-1.04.25-.36.48-.68.69-.98.21-.29.45-.59.73-.88.27-.29.54-.57.79-.82.25-.21.51-.42.76-.63.25-.21.48-.42.69-.63.25-.17.52-.34.79-.51.27-.17.54-.32.79-.44.34-.17.68-.33,1.04-.47.36-.15.71-.26,1.04-.35.34-.08.69-.16,1.07-.22.38-.06.74-.09,1.07-.09h26.6Z"/>
        <path class="e" d="M289.08,23.96c.38,0,.75.02,1.11.06.36.04.71.08,1.04.13.29.08.61.18.95.28.34.11.65.24.95.41.21.13.41.28.6.47s.35.37.47.54c.17.21.32.44.44.69.13.25.23.51.32.76.04.17.09.38.16.63.06.25.09.48.09.69v.73c0,.27-.02.54-.06.79-.04.34-.11.71-.19,1.11-.08.4-.17.79-.25,1.17l-3.22,11.81h-25.71l-.95,3.6c-.04.17-.06.34-.06.51s.02.34.06.51c0,.17.05.34.16.51.1.17.2.32.28.44.08.13.2.26.35.41.15.15.28.24.41.28.13.08.27.15.44.19.17.04.34.06.51.06h21.29l-1.77,6.51h-31.78c-.29,0-.61-.01-.95-.03-.34-.02-.65-.05-.95-.09-.3-.04-.59-.13-.88-.25-.29-.13-.57-.25-.82-.38-.21-.08-.42-.21-.63-.38-.21-.17-.38-.34-.51-.51-.13-.17-.25-.38-.38-.63-.13-.25-.23-.51-.32-.76-.08-.17-.15-.37-.19-.6-.04-.23-.06-.47-.06-.73v-1.77c.04-.21.07-.43.09-.66.02-.23.05-.45.09-.66.08-.25.15-.52.19-.79.04-.27.08-.54.13-.79l3.98-14.97c.08-.25.17-.51.25-.76.08-.25.15-.48.19-.7.08-.21.18-.43.28-.66.1-.23.18-.45.22-.66.17-.34.34-.67.51-1.01.17-.34.34-.65.51-.95.17-.29.37-.59.6-.88.23-.29.43-.55.6-.76.25-.25.51-.51.76-.76.25-.25.51-.46.76-.63.25-.17.54-.34.85-.51.32-.17.62-.29.92-.38.25-.08.54-.17.85-.25.32-.08.62-.15.92-.19.29-.04.6-.08.92-.13.32-.04.6-.06.85-.06h25.59ZM278.41,37.8l1.39-5.24c.04-.08.06-.19.06-.32v-.32c-.04-.13-.08-.25-.13-.38-.04-.13-.08-.23-.13-.32-.04-.08-.11-.17-.19-.25-.08-.08-.17-.17-.25-.25-.08-.04-.18-.08-.28-.13-.11-.04-.2-.06-.28-.06h-7.33c-.13,0-.24.02-.35.06-.11.04-.2.08-.28.13-.13.08-.25.17-.38.25-.13.08-.23.15-.32.19-.08.08-.18.19-.28.32-.11.13-.2.23-.28.32-.21.25-.34.48-.38.7l-1.39,5.31h10.8Z"/>
        <path class="e" d="M317.58,32.49l-6.7,24.83h-15.35l8.85-33.23h32.28c.8,0,1.54.09,2.21.28.67.19,1.28.45,1.83.79.51.3.93.66,1.26,1.11.34.44.63.94.88,1.48.08.21.16.44.22.7.06.25.14.51.22.76.04.3.07.59.09.88.02.29.03.61.03.95-.04.34-.06.67-.06,1.01s-.04.67-.13,1.01c-.04.34-.11.71-.19,1.11-.08.4-.17.79-.25,1.17l-5.88,21.99h-15.29l6.63-24.77c.04-.17.06-.33.06-.47v-.35c-.04-.13-.08-.24-.13-.35-.04-.1-.08-.2-.13-.28-.08-.08-.18-.17-.28-.25-.11-.08-.2-.15-.28-.19-.13-.04-.26-.07-.41-.09-.15-.02-.28-.03-.41-.03h-6.63c-.08,0-.19.01-.32.03-.13.02-.25.05-.38.09-.17.04-.32.11-.44.19-.13.08-.23.15-.32.19-.08.08-.18.17-.28.25-.11.08-.22.19-.35.32-.08.13-.16.26-.22.41-.06.15-.12.31-.16.47Z"/>
        <path class="e" d="M373.04,16.82l-1.96,7.2h12.19l-1.71,6.44h-12.19l-4.99,18.57c-.04.08-.06.19-.06.32s-.02.23-.06.32c.04.08.07.19.09.32.02.13.05.21.1.25.04.08.1.16.19.22.08.06.17.12.25.16.25.13.57.19.95.19h11.12l-1.77,6.44h-20.22c-.42,0-.83-.02-1.23-.06-.4-.04-.77-.1-1.11-.19-.34-.08-.65-.2-.95-.35-.3-.15-.57-.3-.82-.47-.17-.13-.33-.27-.47-.44-.15-.17-.28-.34-.41-.51-.17-.17-.32-.34-.44-.51-.13-.17-.23-.36-.32-.57-.04-.21-.11-.44-.19-.69-.08-.25-.15-.51-.19-.76-.04-.25-.07-.52-.09-.79-.02-.27-.03-.54-.03-.79.04-.21.06-.41.06-.6s.02-.39.06-.6c.04-.17.09-.38.16-.63.06-.25.12-.46.16-.63l4.86-18.2h-6.57l1.71-6.44h6.44l1.96-7.2h15.48Z"/>
        <path class="e" d="M399.32,57.32h-15.35l8.91-33.3h15.35l-.76,2.97c.13-.17.28-.34.47-.51.19-.17.39-.32.6-.44.08-.04.18-.1.28-.19.1-.08.2-.17.28-.25.13-.04.25-.1.38-.19.13-.08.23-.15.32-.19.13-.04.26-.1.41-.19.15-.08.28-.17.41-.25.17-.04.33-.1.47-.19.15-.08.28-.15.41-.19.13-.04.27-.08.44-.13.17-.04.32-.06.44-.06.13-.04.26-.07.41-.09.15-.02.28-.03.41-.03h9.16l-2.46,9.22h-8.09c-.38,0-.77.03-1.17.09-.4.06-.77.12-1.11.16-.38.08-.74.19-1.07.32-.34.13-.65.25-.95.38-.13.08-.27.17-.44.25-.17.08-.32.15-.44.19-.13.08-.25.19-.38.32s-.25.25-.38.38c-.17.13-.32.26-.44.41-.13.15-.21.28-.25.41-.13.17-.23.35-.32.54-.08.19-.15.37-.19.54l-5.37,20.03Z"/>
        <path class="e" d="M466.29,35.46l-5.81,21.73h-13.52v-3.54c0,.13-.04.25-.13.38-.08.13-.15.21-.19.25-.08.08-.18.19-.28.32-.11.13-.18.21-.22.25-.08.13-.19.25-.32.38s-.23.21-.32.25l-.32.32c-.13.13-.23.21-.32.25-.25.21-.53.39-.82.54-.29.15-.59.26-.88.35-.25.04-.54.09-.85.16-.32.06-.62.09-.92.09h-14.09c-.76,0-1.41-.06-1.96-.19-.3-.04-.57-.12-.82-.22-.25-.1-.51-.22-.76-.35-.21-.13-.41-.26-.6-.41-.19-.15-.37-.33-.54-.54-.13-.17-.24-.38-.35-.63-.1-.25-.2-.51-.28-.76-.08-.25-.15-.54-.19-.85-.04-.32-.06-.64-.06-.98s.01-.68.03-1.04c.02-.36.05-.71.09-1.04.04-.34.11-.69.19-1.07.08-.38.15-.74.19-1.07.08-.34.17-.68.25-1.04.08-.36.17-.68.25-.98.04-.29.12-.61.22-.95.1-.34.2-.65.28-.95.08-.29.19-.62.32-.98.13-.36.23-.71.32-1.04.13-.34.26-.66.41-.98.15-.32.3-.64.47-.98.13-.29.29-.61.51-.95.21-.34.4-.63.57-.88.21-.29.45-.58.73-.85s.54-.52.79-.73c.29-.25.61-.48.95-.7.34-.21.67-.38,1.01-.51.59-.25,1.22-.44,1.9-.57.67-.13,1.37-.19,2.08-.19h15.67c.13,0,.28-.02.47-.06.19-.04.35-.1.47-.19.17-.04.34-.14.51-.28.17-.15.34-.28.51-.41.08-.04.18-.13.28-.25.1-.13.2-.25.28-.38.08-.13.16-.25.22-.38.06-.13.12-.23.16-.32.08-.25.08-.51,0-.76-.04-.13-.08-.24-.13-.35-.04-.1-.11-.2-.19-.28-.08-.08-.17-.17-.25-.25-.08-.08-.19-.17-.32-.25-.21-.13-.44-.19-.69-.19h-20.85l1.71-6.51h29.06c.42,0,.83.02,1.23.06.4.04.77.08,1.11.13.29.08.6.19.92.32.32.13.6.25.85.38.25.13.51.29.76.51.25.21.46.42.63.63.17.21.33.45.47.73.15.27.26.54.35.79.13.25.22.52.28.79.06.27.12.54.16.79.04.3.06.59.06.88v.88c0,.38-.02.78-.06,1.2-.04.42-.11.82-.19,1.2-.08.38-.16.77-.22,1.17-.06.4-.16.77-.28,1.11ZM449.49,41.21h-7.46c-.17,0-.35.03-.54.1-.19.06-.35.12-.47.16-.17.08-.35.18-.54.28-.19.11-.37.22-.54.35l-.41.41c-.15.15-.26.28-.35.41-.13.17-.23.34-.32.51-.08.17-.15.32-.19.44l-1.26,4.74c-.04.08-.06.19-.06.32v.32c.04.13.07.25.09.38.02.13.05.23.09.32.08.08.18.19.28.32.1.13.22.21.35.25.08.08.2.15.35.19.15.04.26.06.35.06h6.13c.08,0,.19,0,.32-.03.13-.02.25-.07.38-.16.17-.04.33-.13.47-.25.15-.13.28-.23.41-.32.08-.04.18-.13.28-.25.1-.13.18-.23.22-.32.08-.13.17-.25.25-.38.08-.13.13-.23.13-.32l2.02-7.52Z"/>
        <path class="e" d="M494.66,12.02l-12.13,45.3h-15.35l12.07-45.3h15.42Z"/>
      </g>
      <ellipse class="e" cx="35.61" cy="35.24" rx="35.61" ry="35.24"/>
      <path class="d" d="M34,10.53L13.23,46.51c-.71,1.23.18,2.78,1.6,2.78h41.55c1.43,0,2.32-1.54,1.6-2.78L37.21,10.53c-.71-1.23-2.49-1.23-3.21,0Z"/>
    </g>
  </g>
</svg>